<svg xmlns="http://www.w3.org/2000/svg" viewBox="0 0 880 560" font-family="-apple-system, 'Segoe UI', 'Helvetica Neue', Arial, sans-serif">
  <defs>
    <marker id="a" viewBox="0 0 10 10" refX="9" refY="5" markerWidth="7" markerHeight="7" orient="auto-start-reverse">
      <path d="M0,0 L10,5 L0,10 z" fill="#7A8494"/>
    </marker>
    <marker id="ad" viewBox="0 0 10 10" refX="9" refY="5" markerWidth="7" markerHeight="7" orient="auto-start-reverse">
      <path d="M0,0 L10,5 L0,10 z" fill="#9AA3B0"/>
    </marker>
  </defs>
  <rect x="0" y="0" width="880" height="560" fill="#FBFBFC" stroke="#E3E6EB"/>

  <!-- Tenant DO -->
  <rect x="40" y="40" width="340" height="122" rx="10" fill="#EEF1FB" stroke="#7A8BD0"/>
  <text x="58" y="66" font-size="13.5px" fill="#1F2733" font-weight="600">Tenant DO · SQLite</text>
  <text x="58" y="88" font-size="11px" fill="#5A6472">principals · teams · memberships · Projects</text>
  <text x="58" y="104" font-size="11px" fill="#5A6472">grants ledger · revocation epochs + holder index</text>
  <text x="58" y="120" font-size="11px" fill="#5A6472">credential custody · quotas</text>
  <text x="58" y="146" font-size="11px" fill="#5A6472" font-style="italic">Projects are rows here — grouping costs zero DOs</text>

  <!-- Workspace DO -->
  <rect x="40" y="240" width="340" height="150" rx="10" fill="#E9F5F2" stroke="#5FA99B"/>
  <text x="58" y="266" font-size="13.5px" fill="#1F2733" font-weight="600">Workspace DO · SQLite</text>
  <text x="58" y="288" font-size="11px" fill="#5A6472">facet installs · bindings · event log · subscriptions</text>
  <text x="58" y="304" font-size="11px" fill="#5A6472">runs (default) or run locator index · slate records</text>
  <text x="58" y="320" font-size="11px" fill="#5A6472">bundled facets run in-process here (direct tier)</text>
  <text x="58" y="344" font-size="11px" fill="#5A6472" font-style="italic">append + route = one transaction, inside this DO only —</text>
  <text x="58" y="360" font-size="11px" fill="#5A6472" font-style="italic">there is no cross-DO transaction</text>

  <path d="M180,240 L180,164" stroke="#7A8494" stroke-width="1.3" fill="none" marker-end="url(#a)"/>
  <text x="190" y="196" font-size="10.5px" fill="#3D4654">one authority hop per Turn start</text>
  <path d="M260,164 L260,238" stroke="#9AA3B0" stroke-width="1.2" fill="none" marker-end="url(#ad)" stroke-dasharray="5 4"/>
  <text x="270" y="212" font-size="10.5px" fill="#3D4654">epoch invalidation push</text>

  <!-- Run DO -->
  <rect x="480" y="240" width="180" height="110" rx="10" fill="#FBF3E4" stroke="#C9A15E"/>
  <text x="498" y="266" font-size="13.5px" fill="#1F2733" font-weight="600">Run DO</text>
  <text x="498" y="284" font-size="11px" fill="#5A6472">optional, pinned at start</text>
  <text x="498" y="300" font-size="11px" fill="#5A6472">owns run records +</text>
  <text x="498" y="316" font-size="11px" fill="#5A6472">run-scoped event log</text>
  <line x1="380" y1="286" x2="478" y2="286" stroke="#7A8494" stroke-width="1.3" fill="none" marker-end="url(#a)"/>
  <text x="388" y="278" font-size="10.5px" fill="#3D4654">locator index only</text>
  <path d="M478,326 L382,326" stroke="#9AA3B0" stroke-width="1.2" fill="none" marker-end="url(#ad)" stroke-dasharray="5 4"/>
  <text x="392" y="342" font-size="10.5px" fill="#3D4654">events: async at-least-once projection, idempotency-keyed</text>

  <!-- Provider worker -->
  <rect x="660" y="40" width="180" height="86" rx="10" fill="#F9ECEF" stroke="#C88A9A"/>
  <text x="678" y="66" font-size="13.5px" fill="#1F2733" font-weight="600">Provider Worker</text>
  <text x="678" y="84" font-size="11px" fill="#5A6472">capability stub · holds the</text>
  <text x="678" y="100" font-size="11px" fill="#5A6472">credentials the agent never sees</text>
  <path d="M380,258 C 520,200 600,120 658,96" stroke="#7A8494" stroke-width="1.3" fill="none" marker-end="url(#a)"/>
  <text x="386" y="150" font-size="10.5px" fill="#3D4654">service-binding RPC · re-resolved per Turn step</text>

  <!-- Dynamic isolate -->
  <rect x="660" y="160" width="180" height="92" rx="10" fill="#F2EDFA" stroke="#9B7FC7"/>
  <text x="678" y="186" font-size="13.5px" fill="#1F2733" font-weight="600">Dynamic isolate</text>
  <text x="678" y="204" font-size="11px" fill="#5A6472">Worker Loader · Slate backends</text>
  <text x="678" y="220" font-size="11px" fill="#5A6472">globalOutbound: null — zero</text>
  <text x="678" y="236" font-size="11px" fill="#5A6472">ambient network, Bindings only</text>
  <path d="M380,270 C 540,246 600,224 658,212" stroke="#7A8494" stroke-width="1.3" fill="none" marker-end="url(#a)"/>

  <!-- Environment -->
  <rect x="480" y="430" width="230" height="96" rx="10" fill="#F0F2F5" stroke="#97A1AE"/>
  <text x="498" y="456" font-size="13.5px" fill="#1F2733" font-weight="600">Environment container</text>
  <text x="498" y="474" font-size="11px" fill="#5A6472">Sandbox SDK · the agent's computer</text>
  <text x="498" y="490" font-size="11px" fill="#5A6472">tree checkpoints + FS durability → R2</text>
  <text x="498" y="506" font-size="11px" fill="#5A6472">authenticated preview ports</text>
  <path d="M240,390 C 300,440 400,462 478,470" stroke="#C4CAD2" stroke-width="1.2" fill="none"/>

  <!-- R2 / Queues -->
  <rect x="750" y="330" width="100" height="62" rx="10" fill="#F0F2F5" stroke="#97A1AE"/>
  <text x="800" y="356" font-size="13.5px" fill="#1F2733" font-weight="600" text-anchor="middle">R2</text>
  <text x="800" y="374" font-size="11px" fill="#5A6472" text-anchor="middle">ContentStore</text>
  <path d="M380,340 C 540,368 660,360 748,360" stroke="#C4CAD2" stroke-width="1.2" fill="none"/>

  <rect x="750" y="430" width="100" height="62" rx="10" fill="#F0F2F5" stroke="#97A1AE"/>
  <text x="800" y="456" font-size="13.5px" fill="#1F2733" font-weight="600" text-anchor="middle">Queues</text>
  <text x="800" y="474" font-size="11px" fill="#5A6472" text-anchor="middle">cross-workspace</text>
  <path d="M380,360 C 560,420 660,456 748,460" stroke="#C4CAD2" stroke-width="1.2" fill="none"/>

  <text x="40" y="440" font-size="11px" fill="#5A6472" font-style="italic">Isolation boundaries sit exactly where protection</text>
  <text x="40" y="456" font-size="11px" fill="#5A6472" font-style="italic">domains change — never one Worker per facet.</text>
  <text x="40" y="480" font-size="11px" fill="#5A6472" font-style="italic">Queues and Workflows deliver at least once; the only</text>
  <text x="40" y="496" font-size="11px" fill="#5A6472" font-style="italic">fencing that exists is the lease epoch, checked at the</text>
  <text x="40" y="512" font-size="11px" fill="#5A6472" font-style="italic">owning DO (§5.3).</text>
</svg>
